<svg width="9" height="43" viewBox="0 0 9 43" fill="none" xmlns="http://www.w3.org/2000/svg">
<path d="M0.304 1.216C0.304 0.945333 0.397334 0.716667 0.584 0.53C0.78 0.334 1.01333 0.236 1.284 0.236C1.55467 0.236 1.78333 0.334 1.97 0.53C2.166 0.716667 2.264 0.945333 2.264 1.216C2.264 1.48667 2.166 1.72 1.97 1.916C1.78333 2.10267 1.55467 2.196 1.284 2.196C1.01333 2.196 0.78 2.10267 0.584 1.916C0.397334 1.72 0.304 1.48667 0.304 1.216ZM3.55627 1.216C3.55627 0.945333 3.6496 0.716667 3.83627 0.53C4.03227 0.334 4.2656 0.236 4.53627 0.236C4.80693 0.236 5.0356 0.334 5.22227 0.53C5.41827 0.716667 5.51627 0.945333 5.51627 1.216C5.51627 1.48667 5.41827 1.72 5.22227 1.916C5.0356 2.10267 4.80693 2.196 4.53627 2.196C4.2656 2.196 4.03227 2.10267 3.83627 1.916C3.6496 1.72 3.55627 1.48667 3.55627 1.216ZM6.80853 1.216C6.80853 0.945333 6.90186 0.716667 7.08853 0.53C7.28453 0.334 7.51786 0.236 7.78853 0.236C8.0592 0.236 8.28786 0.334 8.47453 0.53C8.67053 0.716667 8.76853 0.945333 8.76853 1.216C8.76853 1.48667 8.67053 1.72 8.47453 1.916C8.28786 2.10267 8.0592 2.196 7.78853 2.196C7.51786 2.196 7.28453 2.10267 7.08853 1.916C6.90186 1.72 6.80853 1.48667 6.80853 1.216ZM0.304 5.216C0.304 4.94533 0.397334 4.71667 0.584 4.53C0.78 4.334 1.01333 4.236 1.284 4.236C1.55467 4.236 1.78333 4.334 1.97 4.53C2.166 4.71667 2.264 4.94533 2.264 5.216C2.264 5.48667 2.166 5.72 1.97 5.916C1.78333 6.10267 1.55467 6.196 1.284 6.196C1.01333 6.196 0.78 6.10267 0.584 5.916C0.397334 5.72 0.304 5.48667 0.304 5.216ZM3.55627 5.216C3.55627 4.94533 3.6496 4.71667 3.83627 4.53C4.03227 4.334 4.2656 4.236 4.53627 4.236C4.80693 4.236 5.0356 4.334 5.22227 4.53C5.41827 4.71667 5.51627 4.94533 5.51627 5.216C5.51627 5.48667 5.41827 5.72 5.22227 5.916C5.0356 6.10267 4.80693 6.196 4.53627 6.196C4.2656 6.196 4.03227 6.10267 3.83627 5.916C3.6496 5.72 3.55627 5.48667 3.55627 5.216ZM6.80853 5.216C6.80853 4.94533 6.90186 4.71667 7.08853 4.53C7.28453 4.334 7.51786 4.236 7.78853 4.236C8.0592 4.236 8.28786 4.334 8.47453 4.53C8.67053 4.71667 8.76853 4.94533 8.76853 5.216C8.76853 5.48667 8.67053 5.72 8.47453 5.916C8.28786 6.10267 8.0592 6.196 7.78853 6.196C7.51786 6.196 7.28453 6.10267 7.08853 5.916C6.90186 5.72 6.80853 5.48667 6.80853 5.216ZM0.304 9.216C0.304 8.94533 0.397334 8.71667 0.584 8.53C0.78 8.334 1.01333 8.236 1.284 8.236C1.55467 8.236 1.78333 8.334 1.97 8.53C2.166 8.71667 2.264 8.94533 2.264 9.216C2.264 9.48667 2.166 9.72 1.97 9.916C1.78333 10.1027 1.55467 10.196 1.284 10.196C1.01333 10.196 0.78 10.1027 0.584 9.916C0.397334 9.72 0.304 9.48667 0.304 9.216ZM3.55627 9.216C3.55627 8.94533 3.6496 8.71667 3.83627 8.53C4.03227 8.334 4.2656 8.236 4.53627 8.236C4.80693 8.236 5.0356 8.334 5.22227 8.53C5.41827 8.71667 5.51627 8.94533 5.51627 9.216C5.51627 9.48667 5.41827 9.72 5.22227 9.916C5.0356 10.1027 4.80693 10.196 4.53627 10.196C4.2656 10.196 4.03227 10.1027 3.83627 9.916C3.6496 9.72 3.55627 9.48667 3.55627 9.216ZM6.80853 9.216C6.80853 8.94533 6.90186 8.71667 7.08853 8.53C7.28453 8.334 7.51786 8.236 7.78853 8.236C8.0592 8.236 8.28786 8.334 8.47453 8.53C8.67053 8.71667 8.76853 8.94533 8.76853 9.216C8.76853 9.48667 8.67053 9.72 8.47453 9.916C8.28786 10.1027 8.0592 10.196 7.78853 10.196C7.51786 10.196 7.28453 10.1027 7.08853 9.916C6.90186 9.72 6.80853 9.48667 6.80853 9.216ZM0.304 13.216C0.304 12.9453 0.397334 12.7167 0.584 12.53C0.78 12.334 1.01333 12.236 1.284 12.236C1.55467 12.236 1.78333 12.334 1.97 12.53C2.166 12.7167 2.264 12.9453 2.264 13.216C2.264 13.4867 2.166 13.72 1.97 13.916C1.78333 14.1027 1.55467 14.196 1.284 14.196C1.01333 14.196 0.78 14.1027 0.584 13.916C0.397334 13.72 0.304 13.4867 0.304 13.216ZM3.55627 13.216C3.55627 12.9453 3.6496 12.7167 3.83627 12.53C4.03227 12.334 4.2656 12.236 4.53627 12.236C4.80693 12.236 5.0356 12.334 5.22227 12.53C5.41827 12.7167 5.51627 12.9453 5.51627 13.216C5.51627 13.4867 5.41827 13.72 5.22227 13.916C5.0356 14.1027 4.80693 14.196 4.53627 14.196C4.2656 14.196 4.03227 14.1027 3.83627 13.916C3.6496 13.72 3.55627 13.4867 3.55627 13.216ZM6.80853 13.216C6.80853 12.9453 6.90186 12.7167 7.08853 12.53C7.28453 12.334 7.51786 12.236 7.78853 12.236C8.0592 12.236 8.28786 12.334 8.47453 12.53C8.67053 12.7167 8.76853 12.9453 8.76853 13.216C8.76853 13.4867 8.67053 13.72 8.47453 13.916C8.28786 14.1027 8.0592 14.196 7.78853 14.196C7.51786 14.196 7.28453 14.1027 7.08853 13.916C6.90186 13.72 6.80853 13.4867 6.80853 13.216ZM0.304 17.216C0.304 16.9453 0.397334 16.7167 0.584 16.53C0.78 16.334 1.01333 16.236 1.284 16.236C1.55467 16.236 1.78333 16.334 1.97 16.53C2.166 16.7167 2.264 16.9453 2.264 17.216C2.264 17.4867 2.166 17.72 1.97 17.916C1.78333 18.1027 1.55467 18.196 1.284 18.196C1.01333 18.196 0.78 18.1027 0.584 17.916C0.397334 17.72 0.304 17.4867 0.304 17.216ZM3.55627 17.216C3.55627 16.9453 3.6496 16.7167 3.83627 16.53C4.03227 16.334 4.2656 16.236 4.53627 16.236C4.80693 16.236 5.0356 16.334 5.22227 16.53C5.41827 16.7167 5.51627 16.9453 5.51627 17.216C5.51627 17.4867 5.41827 17.72 5.22227 17.916C5.0356 18.1027 4.80693 18.196 4.53627 18.196C4.2656 18.196 4.03227 18.1027 3.83627 17.916C3.6496 17.72 3.55627 17.4867 3.55627 17.216ZM6.80853 17.216C6.80853 16.9453 6.90186 16.7167 7.08853 16.53C7.28453 16.334 7.51786 16.236 7.78853 16.236C8.0592 16.236 8.28786 16.334 8.47453 16.53C8.67053 16.7167 8.76853 16.9453 8.76853 17.216C8.76853 17.4867 8.67053 17.72 8.47453 17.916C8.28786 18.1027 8.0592 18.196 7.78853 18.196C7.51786 18.196 7.28453 18.1027 7.08853 17.916C6.90186 17.72 6.80853 17.4867 6.80853 17.216ZM0.304 21.216C0.304 20.9453 0.397334 20.7167 0.584 20.53C0.78 20.334 1.01333 20.236 1.284 20.236C1.55467 20.236 1.78333 20.334 1.97 20.53C2.166 20.7167 2.264 20.9453 2.264 21.216C2.264 21.4867 2.166 21.72 1.97 21.916C1.78333 22.1027 1.55467 22.196 1.284 22.196C1.01333 22.196 0.78 22.1027 0.584 21.916C0.397334 21.72 0.304 21.4867 0.304 21.216ZM3.55627 21.216C3.55627 20.9453 3.6496 20.7167 3.83627 20.53C4.03227 20.334 4.2656 20.236 4.53627 20.236C4.80693 20.236 5.0356 20.334 5.22227 20.53C5.41827 20.7167 5.51627 20.9453 5.51627 21.216C5.51627 21.4867 5.41827 21.72 5.22227 21.916C5.0356 22.1027 4.80693 22.196 4.53627 22.196C4.2656 22.196 4.03227 22.1027 3.83627 21.916C3.6496 21.72 3.55627 21.4867 3.55627 21.216ZM6.80853 21.216C6.80853 20.9453 6.90186 20.7167 7.08853 20.53C7.28453 20.334 7.51786 20.236 7.78853 20.236C8.0592 20.236 8.28786 20.334 8.47453 20.53C8.67053 20.7167 8.76853 20.9453 8.76853 21.216C8.76853 21.4867 8.67053 21.72 8.47453 21.916C8.28786 22.1027 8.0592 22.196 7.78853 22.196C7.51786 22.196 7.28453 22.1027 7.08853 21.916C6.90186 21.72 6.80853 21.4867 6.80853 21.216ZM0.304 25.216C0.304 24.9453 0.397334 24.7167 0.584 24.53C0.78 24.334 1.01333 24.236 1.284 24.236C1.55467 24.236 1.78333 24.334 1.97 24.53C2.166 24.7167 2.264 24.9453 2.264 25.216C2.264 25.4867 2.166 25.72 1.97 25.916C1.78333 26.1027 1.55467 26.196 1.284 26.196C1.01333 26.196 0.78 26.1027 0.584 25.916C0.397334 25.72 0.304 25.4867 0.304 25.216ZM3.55627 25.216C3.55627 24.9453 3.6496 24.7167 3.83627 24.53C4.03227 24.334 4.2656 24.236 4.53627 24.236C4.80693 24.236 5.0356 24.334 5.22227 24.53C5.41827 24.7167 5.51627 24.9453 5.51627 25.216C5.51627 25.4867 5.41827 25.72 5.22227 25.916C5.0356 26.1027 4.80693 26.196 4.53627 26.196C4.2656 26.196 4.03227 26.1027 3.83627 25.916C3.6496 25.72 3.55627 25.4867 3.55627 25.216ZM6.80853 25.216C6.80853 24.9453 6.90186 24.7167 7.08853 24.53C7.28453 24.334 7.51786 24.236 7.78853 24.236C8.0592 24.236 8.28786 24.334 8.47453 24.53C8.67053 24.7167 8.76853 24.9453 8.76853 25.216C8.76853 25.4867 8.67053 25.72 8.47453 25.916C8.28786 26.1027 8.0592 26.196 7.78853 26.196C7.51786 26.196 7.28453 26.1027 7.08853 25.916C6.90186 25.72 6.80853 25.4867 6.80853 25.216ZM0.304 29.216C0.304 28.9453 0.397334 28.7167 0.584 28.53C0.78 28.334 1.01333 28.236 1.284 28.236C1.55467 28.236 1.78333 28.334 1.97 28.53C2.166 28.7167 2.264 28.9453 2.264 29.216C2.264 29.4867 2.166 29.72 1.97 29.916C1.78333 30.1027 1.55467 30.196 1.284 30.196C1.01333 30.196 0.78 30.1027 0.584 29.916C0.397334 29.72 0.304 29.4867 0.304 29.216ZM3.55627 29.216C3.55627 28.9453 3.6496 28.7167 3.83627 28.53C4.03227 28.334 4.2656 28.236 4.53627 28.236C4.80693 28.236 5.0356 28.334 5.22227 28.53C5.41827 28.7167 5.51627 28.9453 5.51627 29.216C5.51627 29.4867 5.41827 29.72 5.22227 29.916C5.0356 30.1027 4.80693 30.196 4.53627 30.196C4.2656 30.196 4.03227 30.1027 3.83627 29.916C3.6496 29.72 3.55627 29.4867 3.55627 29.216ZM6.80853 29.216C6.80853 28.9453 6.90186 28.7167 7.08853 28.53C7.28453 28.334 7.51786 28.236 7.78853 28.236C8.0592 28.236 8.28786 28.334 8.47453 28.53C8.67053 28.7167 8.76853 28.9453 8.76853 29.216C8.76853 29.4867 8.67053 29.72 8.47453 29.916C8.28786 30.1027 8.0592 30.196 7.78853 30.196C7.51786 30.196 7.28453 30.1027 7.08853 29.916C6.90186 29.72 6.80853 29.4867 6.80853 29.216ZM0.304 33.216C0.304 32.9453 0.397334 32.7167 0.584 32.53C0.78 32.334 1.01333 32.236 1.284 32.236C1.55467 32.236 1.78333 32.334 1.97 32.53C2.166 32.7167 2.264 32.9453 2.264 33.216C2.264 33.4867 2.166 33.72 1.97 33.916C1.78333 34.1027 1.55467 34.196 1.284 34.196C1.01333 34.196 0.78 34.1027 0.584 33.916C0.397334 33.72 0.304 33.4867 0.304 33.216ZM3.55627 33.216C3.55627 32.9453 3.6496 32.7167 3.83627 32.53C4.03227 32.334 4.2656 32.236 4.53627 32.236C4.80693 32.236 5.0356 32.334 5.22227 32.53C5.41827 32.7167 5.51627 32.9453 5.51627 33.216C5.51627 33.4867 5.41827 33.72 5.22227 33.916C5.0356 34.1027 4.80693 34.196 4.53627 34.196C4.2656 34.196 4.03227 34.1027 3.83627 33.916C3.6496 33.72 3.55627 33.4867 3.55627 33.216ZM6.80853 33.216C6.80853 32.9453 6.90186 32.7167 7.08853 32.53C7.28453 32.334 7.51786 32.236 7.78853 32.236C8.0592 32.236 8.28786 32.334 8.47453 32.53C8.67053 32.7167 8.76853 32.9453 8.76853 33.216C8.76853 33.4867 8.67053 33.72 8.47453 33.916C8.28786 34.1027 8.0592 34.196 7.78853 34.196C7.51786 34.196 7.28453 34.1027 7.08853 33.916C6.90186 33.72 6.80853 33.4867 6.80853 33.216ZM0.304 37.216C0.304 36.9453 0.397334 36.7167 0.584 36.53C0.78 36.334 1.01333 36.236 1.284 36.236C1.55467 36.236 1.78333 36.334 1.97 36.53C2.166 36.7167 2.264 36.9453 2.264 37.216C2.264 37.4867 2.166 37.72 1.97 37.916C1.78333 38.1027 1.55467 38.196 1.284 38.196C1.01333 38.196 0.78 38.1027 0.584 37.916C0.397334 37.72 0.304 37.4867 0.304 37.216ZM3.55627 37.216C3.55627 36.9453 3.6496 36.7167 3.83627 36.53C4.03227 36.334 4.2656 36.236 4.53627 36.236C4.80693 36.236 5.0356 36.334 5.22227 36.53C5.41827 36.7167 5.51627 36.9453 5.51627 37.216C5.51627 37.4867 5.41827 37.72 5.22227 37.916C5.0356 38.1027 4.80693 38.196 4.53627 38.196C4.2656 38.196 4.03227 38.1027 3.83627 37.916C3.6496 37.72 3.55627 37.4867 3.55627 37.216ZM6.80853 37.216C6.80853 36.9453 6.90186 36.7167 7.08853 36.53C7.28453 36.334 7.51786 36.236 7.78853 36.236C8.0592 36.236 8.28786 36.334 8.47453 36.53C8.67053 36.7167 8.76853 36.9453 8.76853 37.216C8.76853 37.4867 8.67053 37.72 8.47453 37.916C8.28786 38.1027 8.0592 38.196 7.78853 38.196C7.51786 38.196 7.28453 38.1027 7.08853 37.916C6.90186 37.72 6.80853 37.4867 6.80853 37.216ZM0.304 41.216C0.304 40.9453 0.397334 40.7167 0.584 40.53C0.78 40.334 1.01333 40.236 1.284 40.236C1.55467 40.236 1.78333 40.334 1.97 40.53C2.166 40.7167 2.264 40.9453 2.264 41.216C2.264 41.4867 2.166 41.72 1.97 41.916C1.78333 42.1027 1.55467 42.196 1.284 42.196C1.01333 42.196 0.78 42.1027 0.584 41.916C0.397334 41.72 0.304 41.4867 0.304 41.216ZM3.55627 41.216C3.55627 40.9453 3.6496 40.7167 3.83627 40.53C4.03227 40.334 4.2656 40.236 4.53627 40.236C4.80693 40.236 5.0356 40.334 5.22227 40.53C5.41827 40.7167 5.51627 40.9453 5.51627 41.216C5.51627 41.4867 5.41827 41.72 5.22227 41.916C5.0356 42.1027 4.80693 42.196 4.53627 42.196C4.2656 42.196 4.03227 42.1027 3.83627 41.916C3.6496 41.72 3.55627 41.4867 3.55627 41.216ZM6.80853 41.216C6.80853 40.9453 6.90186 40.7167 7.08853 40.53C7.28453 40.334 7.51786 40.236 7.78853 40.236C8.0592 40.236 8.28786 40.334 8.47453 40.53C8.67053 40.7167 8.76853 40.9453 8.76853 41.216C8.76853 41.4867 8.67053 41.72 8.47453 41.916C8.28786 42.1027 8.0592 42.196 7.78853 42.196C7.51786 42.196 7.28453 42.1027 7.08853 41.916C6.90186 41.72 6.80853 41.4867 6.80853 41.216Z" fill="#061012"/>
</svg>
