<svg width="187" height="28" viewBox="0 0 187 28" fill="none" xmlns="http://www.w3.org/2000/svg">
<path d="M3.98828 28H-0.00390625V0H19.9844V4.00586H3.98828V12.0039H17.9883V16.0098H3.98828V28ZM43.9922 28H24.0039V0H43.9922V4.00586H27.9961V11.0059H41.9961V15.0117H27.9961V24.0078H43.9922V28ZM52.0039 28H48.0117V22.0117H50.0078V16.0098H52.0039V10.0078H54V4.00586H56.0098V0H62.0117V4.00586H64.0078V10.0078H66.0039V16.0098H68V22.0117H70.0098V28H66.0039V22.0117H52.0039V28ZM54 18.0059H64.0078V16.0098H62.0117V10.0078H60.002V6.00195H58.0059V10.0078H56.0098V16.0098H54V18.0059ZM80.9883 28H76.9961V4.00586H68.998V0H88.9863V4.00586H80.9883V28ZM107.977 28H95.9727V26.0039H93.9766V24.0078H91.9805V0H95.9727V22.0117H97.9688V24.0078H105.98V22.0117H107.977V0H111.969V24.0078H109.973V26.0039H107.977V28ZM119.98 28H115.988V0H133.98V2.00977H135.977V4.00586H137.986V13.002H135.977V15.0117H133.98V17.0078H135.977V19.0039H137.986V28H133.98V21H131.984V19.0039H129.988V17.0078H119.98V28ZM119.98 13.002H131.984V11.0059H133.98V6.00195H131.984V4.00586H119.98V13.002ZM161.953 28H141.965V0H161.953V4.00586H145.957V11.0059H159.957V15.0117H145.957V24.0078H161.953V28ZM182.98 28H168.98V26.0039H166.984V24.0078H164.988V20.002H168.98V22.0117H170.977V24.0078H180.984V22.0117H182.98V18.0059H180.984V16.0098H170.977V14H166.984V12.0039H164.988V4.00586H166.984V2.00977H168.98V0H182.98V2.00977H184.977V4.00586H186.986V8.01172H182.98V6.00195H180.984V4.00586H170.977V6.00195H168.98V10.0078H170.977V12.0039H180.984V14H184.977V16.0098H186.986V24.0078H184.977V26.0039H182.98V28Z" fill="white"/>
</svg>
