<svg width="16" height="157" viewBox="0 0 16 157" fill="none" xmlns="http://www.w3.org/2000/svg">
<path d="M0.136 2.544C0.136 2.04133 0.309334 1.61667 0.656 1.27C1.02 0.906 1.45333 0.724 1.956 0.724C2.45867 0.724 2.88333 0.906 3.23 1.27C3.594 1.61667 3.776 2.04133 3.776 2.544C3.776 3.04667 3.594 3.48 3.23 3.844C2.88333 4.19067 2.45867 4.364 1.956 4.364C1.45333 4.364 1.02 4.19067 0.656 3.844C0.309334 3.48 0.136 3.04667 0.136 2.544ZM6.17592 2.544C6.17592 2.04133 6.34926 1.61667 6.69592 1.27C7.05992 0.906 7.49326 0.724 7.99592 0.724C8.49859 0.724 8.92326 0.906 9.26992 1.27C9.63392 1.61667 9.81592 2.04133 9.81592 2.544C9.81592 3.04667 9.63392 3.48 9.26992 3.844C8.92326 4.19067 8.49859 4.364 7.99592 4.364C7.49326 4.364 7.05992 4.19067 6.69592 3.844C6.34926 3.48 6.17592 3.04667 6.17592 2.544ZM12.2158 2.544C12.2158 2.04133 12.3892 1.61667 12.7358 1.27C13.0998 0.906 13.5332 0.724 14.0358 0.724C14.5385 0.724 14.9632 0.906 15.3098 1.27C15.6738 1.61667 15.8558 2.04133 15.8558 2.544C15.8558 3.04667 15.6738 3.48 15.3098 3.844C14.9632 4.19067 14.5385 4.364 14.0358 4.364C13.5332 4.364 13.0998 4.19067 12.7358 3.844C12.3892 3.48 12.2158 3.04667 12.2158 2.544ZM0.136 10.544C0.136 10.0413 0.309334 9.61667 0.656 9.27C1.02 8.906 1.45333 8.724 1.956 8.724C2.45867 8.724 2.88333 8.906 3.23 9.27C3.594 9.61667 3.776 10.0413 3.776 10.544C3.776 11.0467 3.594 11.48 3.23 11.844C2.88333 12.1907 2.45867 12.364 1.956 12.364C1.45333 12.364 1.02 12.1907 0.656 11.844C0.309334 11.48 0.136 11.0467 0.136 10.544ZM6.17592 10.544C6.17592 10.0413 6.34926 9.61667 6.69592 9.27C7.05992 8.906 7.49326 8.724 7.99592 8.724C8.49859 8.724 8.92326 8.906 9.26992 9.27C9.63392 9.61667 9.81592 10.0413 9.81592 10.544C9.81592 11.0467 9.63392 11.48 9.26992 11.844C8.92326 12.1907 8.49859 12.364 7.99592 12.364C7.49326 12.364 7.05992 12.1907 6.69592 11.844C6.34926 11.48 6.17592 11.0467 6.17592 10.544ZM12.2158 10.544C12.2158 10.0413 12.3892 9.61667 12.7358 9.27C13.0998 8.906 13.5332 8.724 14.0358 8.724C14.5385 8.724 14.9632 8.906 15.3098 9.27C15.6738 9.61667 15.8558 10.0413 15.8558 10.544C15.8558 11.0467 15.6738 11.48 15.3098 11.844C14.9632 12.1907 14.5385 12.364 14.0358 12.364C13.5332 12.364 13.0998 12.1907 12.7358 11.844C12.3892 11.48 12.2158 11.0467 12.2158 10.544ZM0.136 18.544C0.136 18.0413 0.309334 17.6167 0.656 17.27C1.02 16.906 1.45333 16.724 1.956 16.724C2.45867 16.724 2.88333 16.906 3.23 17.27C3.594 17.6167 3.776 18.0413 3.776 18.544C3.776 19.0467 3.594 19.48 3.23 19.844C2.88333 20.1907 2.45867 20.364 1.956 20.364C1.45333 20.364 1.02 20.1907 0.656 19.844C0.309334 19.48 0.136 19.0467 0.136 18.544ZM6.17592 18.544C6.17592 18.0413 6.34926 17.6167 6.69592 17.27C7.05992 16.906 7.49326 16.724 7.99592 16.724C8.49859 16.724 8.92326 16.906 9.26992 17.27C9.63392 17.6167 9.81592 18.0413 9.81592 18.544C9.81592 19.0467 9.63392 19.48 9.26992 19.844C8.92326 20.1907 8.49859 20.364 7.99592 20.364C7.49326 20.364 7.05992 20.1907 6.69592 19.844C6.34926 19.48 6.17592 19.0467 6.17592 18.544ZM12.2158 18.544C12.2158 18.0413 12.3892 17.6167 12.7358 17.27C13.0998 16.906 13.5332 16.724 14.0358 16.724C14.5385 16.724 14.9632 16.906 15.3098 17.27C15.6738 17.6167 15.8558 18.0413 15.8558 18.544C15.8558 19.0467 15.6738 19.48 15.3098 19.844C14.9632 20.1907 14.5385 20.364 14.0358 20.364C13.5332 20.364 13.0998 20.1907 12.7358 19.844C12.3892 19.48 12.2158 19.0467 12.2158 18.544ZM0.136 26.544C0.136 26.0413 0.309334 25.6167 0.656 25.27C1.02 24.906 1.45333 24.724 1.956 24.724C2.45867 24.724 2.88333 24.906 3.23 25.27C3.594 25.6167 3.776 26.0413 3.776 26.544C3.776 27.0467 3.594 27.48 3.23 27.844C2.88333 28.1907 2.45867 28.364 1.956 28.364C1.45333 28.364 1.02 28.1907 0.656 27.844C0.309334 27.48 0.136 27.0467 0.136 26.544ZM6.17592 26.544C6.17592 26.0413 6.34926 25.6167 6.69592 25.27C7.05992 24.906 7.49326 24.724 7.99592 24.724C8.49859 24.724 8.92326 24.906 9.26992 25.27C9.63392 25.6167 9.81592 26.0413 9.81592 26.544C9.81592 27.0467 9.63392 27.48 9.26992 27.844C8.92326 28.1907 8.49859 28.364 7.99592 28.364C7.49326 28.364 7.05992 28.1907 6.69592 27.844C6.34926 27.48 6.17592 27.0467 6.17592 26.544ZM12.2158 26.544C12.2158 26.0413 12.3892 25.6167 12.7358 25.27C13.0998 24.906 13.5332 24.724 14.0358 24.724C14.5385 24.724 14.9632 24.906 15.3098 25.27C15.6738 25.6167 15.8558 26.0413 15.8558 26.544C15.8558 27.0467 15.6738 27.48 15.3098 27.844C14.9632 28.1907 14.5385 28.364 14.0358 28.364C13.5332 28.364 13.0998 28.1907 12.7358 27.844C12.3892 27.48 12.2158 27.0467 12.2158 26.544ZM0.136 34.544C0.136 34.0413 0.309334 33.6167 0.656 33.27C1.02 32.906 1.45333 32.724 1.956 32.724C2.45867 32.724 2.88333 32.906 3.23 33.27C3.594 33.6167 3.776 34.0413 3.776 34.544C3.776 35.0467 3.594 35.48 3.23 35.844C2.88333 36.1907 2.45867 36.364 1.956 36.364C1.45333 36.364 1.02 36.1907 0.656 35.844C0.309334 35.48 0.136 35.0467 0.136 34.544ZM6.17592 34.544C6.17592 34.0413 6.34926 33.6167 6.69592 33.27C7.05992 32.906 7.49326 32.724 7.99592 32.724C8.49859 32.724 8.92326 32.906 9.26992 33.27C9.63392 33.6167 9.81592 34.0413 9.81592 34.544C9.81592 35.0467 9.63392 35.48 9.26992 35.844C8.92326 36.1907 8.49859 36.364 7.99592 36.364C7.49326 36.364 7.05992 36.1907 6.69592 35.844C6.34926 35.48 6.17592 35.0467 6.17592 34.544ZM12.2158 34.544C12.2158 34.0413 12.3892 33.6167 12.7358 33.27C13.0998 32.906 13.5332 32.724 14.0358 32.724C14.5385 32.724 14.9632 32.906 15.3098 33.27C15.6738 33.6167 15.8558 34.0413 15.8558 34.544C15.8558 35.0467 15.6738 35.48 15.3098 35.844C14.9632 36.1907 14.5385 36.364 14.0358 36.364C13.5332 36.364 13.0998 36.1907 12.7358 35.844C12.3892 35.48 12.2158 35.0467 12.2158 34.544ZM0.136 42.544C0.136 42.0413 0.309334 41.6167 0.656 41.27C1.02 40.906 1.45333 40.724 1.956 40.724C2.45867 40.724 2.88333 40.906 3.23 41.27C3.594 41.6167 3.776 42.0413 3.776 42.544C3.776 43.0467 3.594 43.48 3.23 43.844C2.88333 44.1907 2.45867 44.364 1.956 44.364C1.45333 44.364 1.02 44.1907 0.656 43.844C0.309334 43.48 0.136 43.0467 0.136 42.544ZM6.17592 42.544C6.17592 42.0413 6.34926 41.6167 6.69592 41.27C7.05992 40.906 7.49326 40.724 7.99592 40.724C8.49859 40.724 8.92326 40.906 9.26992 41.27C9.63392 41.6167 9.81592 42.0413 9.81592 42.544C9.81592 43.0467 9.63392 43.48 9.26992 43.844C8.92326 44.1907 8.49859 44.364 7.99592 44.364C7.49326 44.364 7.05992 44.1907 6.69592 43.844C6.34926 43.48 6.17592 43.0467 6.17592 42.544ZM12.2158 42.544C12.2158 42.0413 12.3892 41.6167 12.7358 41.27C13.0998 40.906 13.5332 40.724 14.0358 40.724C14.5385 40.724 14.9632 40.906 15.3098 41.27C15.6738 41.6167 15.8558 42.0413 15.8558 42.544C15.8558 43.0467 15.6738 43.48 15.3098 43.844C14.9632 44.1907 14.5385 44.364 14.0358 44.364C13.5332 44.364 13.0998 44.1907 12.7358 43.844C12.3892 43.48 12.2158 43.0467 12.2158 42.544ZM0.136 50.544C0.136 50.0413 0.309334 49.6167 0.656 49.27C1.02 48.906 1.45333 48.724 1.956 48.724C2.45867 48.724 2.88333 48.906 3.23 49.27C3.594 49.6167 3.776 50.0413 3.776 50.544C3.776 51.0467 3.594 51.48 3.23 51.844C2.88333 52.1907 2.45867 52.364 1.956 52.364C1.45333 52.364 1.02 52.1907 0.656 51.844C0.309334 51.48 0.136 51.0467 0.136 50.544ZM6.17592 50.544C6.17592 50.0413 6.34926 49.6167 6.69592 49.27C7.05992 48.906 7.49326 48.724 7.99592 48.724C8.49859 48.724 8.92326 48.906 9.26992 49.27C9.63392 49.6167 9.81592 50.0413 9.81592 50.544C9.81592 51.0467 9.63392 51.48 9.26992 51.844C8.92326 52.1907 8.49859 52.364 7.99592 52.364C7.49326 52.364 7.05992 52.1907 6.69592 51.844C6.34926 51.48 6.17592 51.0467 6.17592 50.544ZM12.2158 50.544C12.2158 50.0413 12.3892 49.6167 12.7358 49.27C13.0998 48.906 13.5332 48.724 14.0358 48.724C14.5385 48.724 14.9632 48.906 15.3098 49.27C15.6738 49.6167 15.8558 50.0413 15.8558 50.544C15.8558 51.0467 15.6738 51.48 15.3098 51.844C14.9632 52.1907 14.5385 52.364 14.0358 52.364C13.5332 52.364 13.0998 52.1907 12.7358 51.844C12.3892 51.48 12.2158 51.0467 12.2158 50.544ZM0.136 58.544C0.136 58.0413 0.309334 57.6167 0.656 57.27C1.02 56.906 1.45333 56.724 1.956 56.724C2.45867 56.724 2.88333 56.906 3.23 57.27C3.594 57.6167 3.776 58.0413 3.776 58.544C3.776 59.0467 3.594 59.48 3.23 59.844C2.88333 60.1907 2.45867 60.364 1.956 60.364C1.45333 60.364 1.02 60.1907 0.656 59.844C0.309334 59.48 0.136 59.0467 0.136 58.544ZM6.17592 58.544C6.17592 58.0413 6.34926 57.6167 6.69592 57.27C7.05992 56.906 7.49326 56.724 7.99592 56.724C8.49859 56.724 8.92326 56.906 9.26992 57.27C9.63392 57.6167 9.81592 58.0413 9.81592 58.544C9.81592 59.0467 9.63392 59.48 9.26992 59.844C8.92326 60.1907 8.49859 60.364 7.99592 60.364C7.49326 60.364 7.05992 60.1907 6.69592 59.844C6.34926 59.48 6.17592 59.0467 6.17592 58.544ZM12.2158 58.544C12.2158 58.0413 12.3892 57.6167 12.7358 57.27C13.0998 56.906 13.5332 56.724 14.0358 56.724C14.5385 56.724 14.9632 56.906 15.3098 57.27C15.6738 57.6167 15.8558 58.0413 15.8558 58.544C15.8558 59.0467 15.6738 59.48 15.3098 59.844C14.9632 60.1907 14.5385 60.364 14.0358 60.364C13.5332 60.364 13.0998 60.1907 12.7358 59.844C12.3892 59.48 12.2158 59.0467 12.2158 58.544ZM0.136 66.544C0.136 66.0413 0.309334 65.6167 0.656 65.27C1.02 64.906 1.45333 64.724 1.956 64.724C2.45867 64.724 2.88333 64.906 3.23 65.27C3.594 65.6167 3.776 66.0413 3.776 66.544C3.776 67.0467 3.594 67.48 3.23 67.844C2.88333 68.1907 2.45867 68.364 1.956 68.364C1.45333 68.364 1.02 68.1907 0.656 67.844C0.309334 67.48 0.136 67.0467 0.136 66.544ZM6.17592 66.544C6.17592 66.0413 6.34926 65.6167 6.69592 65.27C7.05992 64.906 7.49326 64.724 7.99592 64.724C8.49859 64.724 8.92326 64.906 9.26992 65.27C9.63392 65.6167 9.81592 66.0413 9.81592 66.544C9.81592 67.0467 9.63392 67.48 9.26992 67.844C8.92326 68.1907 8.49859 68.364 7.99592 68.364C7.49326 68.364 7.05992 68.1907 6.69592 67.844C6.34926 67.48 6.17592 67.0467 6.17592 66.544ZM12.2158 66.544C12.2158 66.0413 12.3892 65.6167 12.7358 65.27C13.0998 64.906 13.5332 64.724 14.0358 64.724C14.5385 64.724 14.9632 64.906 15.3098 65.27C15.6738 65.6167 15.8558 66.0413 15.8558 66.544C15.8558 67.0467 15.6738 67.48 15.3098 67.844C14.9632 68.1907 14.5385 68.364 14.0358 68.364C13.5332 68.364 13.0998 68.1907 12.7358 67.844C12.3892 67.48 12.2158 67.0467 12.2158 66.544ZM0.136 74.544C0.136 74.0413 0.309334 73.6167 0.656 73.27C1.02 72.906 1.45333 72.724 1.956 72.724C2.45867 72.724 2.88333 72.906 3.23 73.27C3.594 73.6167 3.776 74.0413 3.776 74.544C3.776 75.0467 3.594 75.48 3.23 75.844C2.88333 76.1907 2.45867 76.364 1.956 76.364C1.45333 76.364 1.02 76.1907 0.656 75.844C0.309334 75.48 0.136 75.0467 0.136 74.544ZM6.17592 74.544C6.17592 74.0413 6.34926 73.6167 6.69592 73.27C7.05992 72.906 7.49326 72.724 7.99592 72.724C8.49859 72.724 8.92326 72.906 9.26992 73.27C9.63392 73.6167 9.81592 74.0413 9.81592 74.544C9.81592 75.0467 9.63392 75.48 9.26992 75.844C8.92326 76.1907 8.49859 76.364 7.99592 76.364C7.49326 76.364 7.05992 76.1907 6.69592 75.844C6.34926 75.48 6.17592 75.0467 6.17592 74.544ZM12.2158 74.544C12.2158 74.0413 12.3892 73.6167 12.7358 73.27C13.0998 72.906 13.5332 72.724 14.0358 72.724C14.5385 72.724 14.9632 72.906 15.3098 73.27C15.6738 73.6167 15.8558 74.0413 15.8558 74.544C15.8558 75.0467 15.6738 75.48 15.3098 75.844C14.9632 76.1907 14.5385 76.364 14.0358 76.364C13.5332 76.364 13.0998 76.1907 12.7358 75.844C12.3892 75.48 12.2158 75.0467 12.2158 74.544ZM0.136 82.544C0.136 82.0413 0.309334 81.6167 0.656 81.27C1.02 80.906 1.45333 80.724 1.956 80.724C2.45867 80.724 2.88333 80.906 3.23 81.27C3.594 81.6167 3.776 82.0413 3.776 82.544C3.776 83.0467 3.594 83.48 3.23 83.844C2.88333 84.1907 2.45867 84.364 1.956 84.364C1.45333 84.364 1.02 84.1907 0.656 83.844C0.309334 83.48 0.136 83.0467 0.136 82.544ZM6.17592 82.544C6.17592 82.0413 6.34926 81.6167 6.69592 81.27C7.05992 80.906 7.49326 80.724 7.99592 80.724C8.49859 80.724 8.92326 80.906 9.26992 81.27C9.63392 81.6167 9.81592 82.0413 9.81592 82.544C9.81592 83.0467 9.63392 83.48 9.26992 83.844C8.92326 84.1907 8.49859 84.364 7.99592 84.364C7.49326 84.364 7.05992 84.1907 6.69592 83.844C6.34926 83.48 6.17592 83.0467 6.17592 82.544ZM12.2158 82.544C12.2158 82.0413 12.3892 81.6167 12.7358 81.27C13.0998 80.906 13.5332 80.724 14.0358 80.724C14.5385 80.724 14.9632 80.906 15.3098 81.27C15.6738 81.6167 15.8558 82.0413 15.8558 82.544C15.8558 83.0467 15.6738 83.48 15.3098 83.844C14.9632 84.1907 14.5385 84.364 14.0358 84.364C13.5332 84.364 13.0998 84.1907 12.7358 83.844C12.3892 83.48 12.2158 83.0467 12.2158 82.544ZM0.136 90.544C0.136 90.0413 0.309334 89.6167 0.656 89.27C1.02 88.906 1.45333 88.724 1.956 88.724C2.45867 88.724 2.88333 88.906 3.23 89.27C3.594 89.6167 3.776 90.0413 3.776 90.544C3.776 91.0467 3.594 91.48 3.23 91.844C2.88333 92.1907 2.45867 92.364 1.956 92.364C1.45333 92.364 1.02 92.1907 0.656 91.844C0.309334 91.48 0.136 91.0467 0.136 90.544ZM6.17592 90.544C6.17592 90.0413 6.34926 89.6167 6.69592 89.27C7.05992 88.906 7.49326 88.724 7.99592 88.724C8.49859 88.724 8.92326 88.906 9.26992 89.27C9.63392 89.6167 9.81592 90.0413 9.81592 90.544C9.81592 91.0467 9.63392 91.48 9.26992 91.844C8.92326 92.1907 8.49859 92.364 7.99592 92.364C7.49326 92.364 7.05992 92.1907 6.69592 91.844C6.34926 91.48 6.17592 91.0467 6.17592 90.544ZM12.2158 90.544C12.2158 90.0413 12.3892 89.6167 12.7358 89.27C13.0998 88.906 13.5332 88.724 14.0358 88.724C14.5385 88.724 14.9632 88.906 15.3098 89.27C15.6738 89.6167 15.8558 90.0413 15.8558 90.544C15.8558 91.0467 15.6738 91.48 15.3098 91.844C14.9632 92.1907 14.5385 92.364 14.0358 92.364C13.5332 92.364 13.0998 92.1907 12.7358 91.844C12.3892 91.48 12.2158 91.0467 12.2158 90.544ZM0.136 98.544C0.136 98.0413 0.309334 97.6167 0.656 97.27C1.02 96.906 1.45333 96.724 1.956 96.724C2.45867 96.724 2.88333 96.906 3.23 97.27C3.594 97.6167 3.776 98.0413 3.776 98.544C3.776 99.0467 3.594 99.48 3.23 99.844C2.88333 100.191 2.45867 100.364 1.956 100.364C1.45333 100.364 1.02 100.191 0.656 99.844C0.309334 99.48 0.136 99.0467 0.136 98.544ZM6.17592 98.544C6.17592 98.0413 6.34926 97.6167 6.69592 97.27C7.05992 96.906 7.49326 96.724 7.99592 96.724C8.49859 96.724 8.92326 96.906 9.26992 97.27C9.63392 97.6167 9.81592 98.0413 9.81592 98.544C9.81592 99.0467 9.63392 99.48 9.26992 99.844C8.92326 100.191 8.49859 100.364 7.99592 100.364C7.49326 100.364 7.05992 100.191 6.69592 99.844C6.34926 99.48 6.17592 99.0467 6.17592 98.544ZM12.2158 98.544C12.2158 98.0413 12.3892 97.6167 12.7358 97.27C13.0998 96.906 13.5332 96.724 14.0358 96.724C14.5385 96.724 14.9632 96.906 15.3098 97.27C15.6738 97.6167 15.8558 98.0413 15.8558 98.544C15.8558 99.0467 15.6738 99.48 15.3098 99.844C14.9632 100.191 14.5385 100.364 14.0358 100.364C13.5332 100.364 13.0998 100.191 12.7358 99.844C12.3892 99.48 12.2158 99.0467 12.2158 98.544ZM0.136 106.544C0.136 106.041 0.309334 105.617 0.656 105.27C1.02 104.906 1.45333 104.724 1.956 104.724C2.45867 104.724 2.88333 104.906 3.23 105.27C3.594 105.617 3.776 106.041 3.776 106.544C3.776 107.047 3.594 107.48 3.23 107.844C2.88333 108.191 2.45867 108.364 1.956 108.364C1.45333 108.364 1.02 108.191 0.656 107.844C0.309334 107.48 0.136 107.047 0.136 106.544ZM6.17592 106.544C6.17592 106.041 6.34926 105.617 6.69592 105.27C7.05992 104.906 7.49326 104.724 7.99592 104.724C8.49859 104.724 8.92326 104.906 9.26992 105.27C9.63392 105.617 9.81592 106.041 9.81592 106.544C9.81592 107.047 9.63392 107.48 9.26992 107.844C8.92326 108.191 8.49859 108.364 7.99592 108.364C7.49326 108.364 7.05992 108.191 6.69592 107.844C6.34926 107.48 6.17592 107.047 6.17592 106.544ZM12.2158 106.544C12.2158 106.041 12.3892 105.617 12.7358 105.27C13.0998 104.906 13.5332 104.724 14.0358 104.724C14.5385 104.724 14.9632 104.906 15.3098 105.27C15.6738 105.617 15.8558 106.041 15.8558 106.544C15.8558 107.047 15.6738 107.48 15.3098 107.844C14.9632 108.191 14.5385 108.364 14.0358 108.364C13.5332 108.364 13.0998 108.191 12.7358 107.844C12.3892 107.48 12.2158 107.047 12.2158 106.544ZM0.136 114.544C0.136 114.041 0.309334 113.617 0.656 113.27C1.02 112.906 1.45333 112.724 1.956 112.724C2.45867 112.724 2.88333 112.906 3.23 113.27C3.594 113.617 3.776 114.041 3.776 114.544C3.776 115.047 3.594 115.48 3.23 115.844C2.88333 116.191 2.45867 116.364 1.956 116.364C1.45333 116.364 1.02 116.191 0.656 115.844C0.309334 115.48 0.136 115.047 0.136 114.544ZM6.17592 114.544C6.17592 114.041 6.34926 113.617 6.69592 113.27C7.05992 112.906 7.49326 112.724 7.99592 112.724C8.49859 112.724 8.92326 112.906 9.26992 113.27C9.63392 113.617 9.81592 114.041 9.81592 114.544C9.81592 115.047 9.63392 115.48 9.26992 115.844C8.92326 116.191 8.49859 116.364 7.99592 116.364C7.49326 116.364 7.05992 116.191 6.69592 115.844C6.34926 115.48 6.17592 115.047 6.17592 114.544ZM12.2158 114.544C12.2158 114.041 12.3892 113.617 12.7358 113.27C13.0998 112.906 13.5332 112.724 14.0358 112.724C14.5385 112.724 14.9632 112.906 15.3098 113.27C15.6738 113.617 15.8558 114.041 15.8558 114.544C15.8558 115.047 15.6738 115.48 15.3098 115.844C14.9632 116.191 14.5385 116.364 14.0358 116.364C13.5332 116.364 13.0998 116.191 12.7358 115.844C12.3892 115.48 12.2158 115.047 12.2158 114.544ZM0.136 122.544C0.136 122.041 0.309334 121.617 0.656 121.27C1.02 120.906 1.45333 120.724 1.956 120.724C2.45867 120.724 2.88333 120.906 3.23 121.27C3.594 121.617 3.776 122.041 3.776 122.544C3.776 123.047 3.594 123.48 3.23 123.844C2.88333 124.191 2.45867 124.364 1.956 124.364C1.45333 124.364 1.02 124.191 0.656 123.844C0.309334 123.48 0.136 123.047 0.136 122.544ZM6.17592 122.544C6.17592 122.041 6.34926 121.617 6.69592 121.27C7.05992 120.906 7.49326 120.724 7.99592 120.724C8.49859 120.724 8.92326 120.906 9.26992 121.27C9.63392 121.617 9.81592 122.041 9.81592 122.544C9.81592 123.047 9.63392 123.48 9.26992 123.844C8.92326 124.191 8.49859 124.364 7.99592 124.364C7.49326 124.364 7.05992 124.191 6.69592 123.844C6.34926 123.48 6.17592 123.047 6.17592 122.544ZM12.2158 122.544C12.2158 122.041 12.3892 121.617 12.7358 121.27C13.0998 120.906 13.5332 120.724 14.0358 120.724C14.5385 120.724 14.9632 120.906 15.3098 121.27C15.6738 121.617 15.8558 122.041 15.8558 122.544C15.8558 123.047 15.6738 123.48 15.3098 123.844C14.9632 124.191 14.5385 124.364 14.0358 124.364C13.5332 124.364 13.0998 124.191 12.7358 123.844C12.3892 123.48 12.2158 123.047 12.2158 122.544ZM0.136 130.544C0.136 130.041 0.309334 129.617 0.656 129.27C1.02 128.906 1.45333 128.724 1.956 128.724C2.45867 128.724 2.88333 128.906 3.23 129.27C3.594 129.617 3.776 130.041 3.776 130.544C3.776 131.047 3.594 131.48 3.23 131.844C2.88333 132.191 2.45867 132.364 1.956 132.364C1.45333 132.364 1.02 132.191 0.656 131.844C0.309334 131.48 0.136 131.047 0.136 130.544ZM6.17592 130.544C6.17592 130.041 6.34926 129.617 6.69592 129.27C7.05992 128.906 7.49326 128.724 7.99592 128.724C8.49859 128.724 8.92326 128.906 9.26992 129.27C9.63392 129.617 9.81592 130.041 9.81592 130.544C9.81592 131.047 9.63392 131.48 9.26992 131.844C8.92326 132.191 8.49859 132.364 7.99592 132.364C7.49326 132.364 7.05992 132.191 6.69592 131.844C6.34926 131.48 6.17592 131.047 6.17592 130.544ZM12.2158 130.544C12.2158 130.041 12.3892 129.617 12.7358 129.27C13.0998 128.906 13.5332 128.724 14.0358 128.724C14.5385 128.724 14.9632 128.906 15.3098 129.27C15.6738 129.617 15.8558 130.041 15.8558 130.544C15.8558 131.047 15.6738 131.48 15.3098 131.844C14.9632 132.191 14.5385 132.364 14.0358 132.364C13.5332 132.364 13.0998 132.191 12.7358 131.844C12.3892 131.48 12.2158 131.047 12.2158 130.544ZM0.136 138.544C0.136 138.041 0.309334 137.617 0.656 137.27C1.02 136.906 1.45333 136.724 1.956 136.724C2.45867 136.724 2.88333 136.906 3.23 137.27C3.594 137.617 3.776 138.041 3.776 138.544C3.776 139.047 3.594 139.48 3.23 139.844C2.88333 140.191 2.45867 140.364 1.956 140.364C1.45333 140.364 1.02 140.191 0.656 139.844C0.309334 139.48 0.136 139.047 0.136 138.544ZM6.17592 138.544C6.17592 138.041 6.34926 137.617 6.69592 137.27C7.05992 136.906 7.49326 136.724 7.99592 136.724C8.49859 136.724 8.92326 136.906 9.26992 137.27C9.63392 137.617 9.81592 138.041 9.81592 138.544C9.81592 139.047 9.63392 139.48 9.26992 139.844C8.92326 140.191 8.49859 140.364 7.99592 140.364C7.49326 140.364 7.05992 140.191 6.69592 139.844C6.34926 139.48 6.17592 139.047 6.17592 138.544ZM12.2158 138.544C12.2158 138.041 12.3892 137.617 12.7358 137.27C13.0998 136.906 13.5332 136.724 14.0358 136.724C14.5385 136.724 14.9632 136.906 15.3098 137.27C15.6738 137.617 15.8558 138.041 15.8558 138.544C15.8558 139.047 15.6738 139.48 15.3098 139.844C14.9632 140.191 14.5385 140.364 14.0358 140.364C13.5332 140.364 13.0998 140.191 12.7358 139.844C12.3892 139.48 12.2158 139.047 12.2158 138.544ZM0.136 146.544C0.136 146.041 0.309334 145.617 0.656 145.27C1.02 144.906 1.45333 144.724 1.956 144.724C2.45867 144.724 2.88333 144.906 3.23 145.27C3.594 145.617 3.776 146.041 3.776 146.544C3.776 147.047 3.594 147.48 3.23 147.844C2.88333 148.191 2.45867 148.364 1.956 148.364C1.45333 148.364 1.02 148.191 0.656 147.844C0.309334 147.48 0.136 147.047 0.136 146.544ZM6.17592 146.544C6.17592 146.041 6.34926 145.617 6.69592 145.27C7.05992 144.906 7.49326 144.724 7.99592 144.724C8.49859 144.724 8.92326 144.906 9.26992 145.27C9.63392 145.617 9.81592 146.041 9.81592 146.544C9.81592 147.047 9.63392 147.48 9.26992 147.844C8.92326 148.191 8.49859 148.364 7.99592 148.364C7.49326 148.364 7.05992 148.191 6.69592 147.844C6.34926 147.48 6.17592 147.047 6.17592 146.544ZM12.2158 146.544C12.2158 146.041 12.3892 145.617 12.7358 145.27C13.0998 144.906 13.5332 144.724 14.0358 144.724C14.5385 144.724 14.9632 144.906 15.3098 145.27C15.6738 145.617 15.8558 146.041 15.8558 146.544C15.8558 147.047 15.6738 147.48 15.3098 147.844C14.9632 148.191 14.5385 148.364 14.0358 148.364C13.5332 148.364 13.0998 148.191 12.7358 147.844C12.3892 147.48 12.2158 147.047 12.2158 146.544ZM0.136 154.544C0.136 154.041 0.309334 153.617 0.656 153.27C1.02 152.906 1.45333 152.724 1.956 152.724C2.45867 152.724 2.88333 152.906 3.23 153.27C3.594 153.617 3.776 154.041 3.776 154.544C3.776 155.047 3.594 155.48 3.23 155.844C2.88333 156.191 2.45867 156.364 1.956 156.364C1.45333 156.364 1.02 156.191 0.656 155.844C0.309334 155.48 0.136 155.047 0.136 154.544ZM6.17592 154.544C6.17592 154.041 6.34926 153.617 6.69592 153.27C7.05992 152.906 7.49326 152.724 7.99592 152.724C8.49859 152.724 8.92326 152.906 9.26992 153.27C9.63392 153.617 9.81592 154.041 9.81592 154.544C9.81592 155.047 9.63392 155.48 9.26992 155.844C8.92326 156.191 8.49859 156.364 7.99592 156.364C7.49326 156.364 7.05992 156.191 6.69592 155.844C6.34926 155.48 6.17592 155.047 6.17592 154.544ZM12.2158 154.544C12.2158 154.041 12.3892 153.617 12.7358 153.27C13.0998 152.906 13.5332 152.724 14.0358 152.724C14.5385 152.724 14.9632 152.906 15.3098 153.27C15.6738 153.617 15.8558 154.041 15.8558 154.544C15.8558 155.047 15.6738 155.48 15.3098 155.844C14.9632 156.191 14.5385 156.364 14.0358 156.364C13.5332 156.364 13.0998 156.191 12.7358 155.844C12.3892 155.48 12.2158 155.047 12.2158 154.544Z" fill="#06FFC3"/>
</svg>
