<svg width="376" height="32" viewBox="0 0 376 32" fill="none" xmlns="http://www.w3.org/2000/svg">
<path d="M3.98828 32H-0.00390625V4H3.98828V32ZM11.9727 32H7.98047V4H13.9688V8.00586H15.9785V12.0117H17.9746V16.0039H19.9707V20.0098H21.9805V24.002H23.9766V4H27.9688V32H21.9805V28.0078H19.9707V24.002H17.9746V20.0098H15.9785V16.0039H13.9688V12.0117H11.9727V32ZM55.9688 32H45.9609V30.0039H43.9648V28.0078H41.9688V26.0117H39.9727V10.002H41.9688V8.00586H43.9648V6.00977H45.9609V4H57.9648V6.00977H59.9609V8.00586H61.9707V10.002H63.9668V14.0078H59.9609V12.0117H57.9648V10.002H55.9688V8.00586H47.9707V10.002H45.9609V12.0117H43.9648V24.002H45.9609V26.0117H47.9707V28.0078H55.9688V26.0117H57.9648V24.002H59.9609V22.0059H53.9727V18H63.9668V32H59.9609V28.0078H57.9648V30.0039H55.9688V32ZM85.9648 32H73.9609V30.0039H71.9648V28.0078H69.9688V26.0117H67.9727V10.002H69.9688V8.00586H71.9648V6.00977H73.9609V4H85.9648V6.00977H87.9609V8.00586H89.9707V10.002H91.9668V26.0117H89.9707V28.0078H87.9609V30.0039H85.9648V32ZM75.9707 28.0078H83.9688V26.0117H85.9648V24.002H87.9609V12.0117H85.9648V10.002H83.9688V8.00586H75.9707V10.002H73.9609V12.0117H71.9648V24.002H73.9609V26.0117H75.9707V28.0078ZM108.975 32H102.973V28.0078H100.963V22.0059H98.9668V16.0039H96.9707V10.002H94.9746V4H98.9668V10.002H100.963V16.0039H102.973V22.0059H104.969V26.0117H106.965V22.0059H108.975V16.0039H110.971V10.002H112.967V4H116.973V10.002H114.963V16.0039H112.967V22.0059H110.971V28.0078H108.975V32ZM139.969 32H119.98V4H139.969V8.00586H123.973V15.0059H137.973V19.0117H123.973V28.0078H139.969V32ZM147.98 32H143.988V4H161.98V6.00977H163.977V8.00586H165.986V17.002H163.977V19.0117H161.98V21.0078H163.977V23.0039H165.986V32H161.98V25H159.984V23.0039H157.988V21.0078H147.98V32ZM147.98 17.002H159.984V15.0059H161.98V10.002H159.984V8.00586H147.98V17.002ZM173.957 32H169.965V4H175.953V8.00586H177.963V12.0117H179.959V16.0039H181.955V20.0098H183.965V24.002H185.961V4H189.953V32H183.965V28.0078H181.955V24.002H179.959V20.0098H177.963V16.0039H175.953V12.0117H173.957V32ZM197.965 32H193.973V26.0117H195.969V20.0098H197.965V14.0078H199.961V8.00586H201.971V4H207.973V8.00586H209.969V14.0078H211.965V20.0098H213.961V26.0117H215.971V32H211.965V26.0117H197.965V32ZM199.961 22.0059H209.969V20.0098H207.973V14.0078H205.963V10.002H203.967V14.0078H201.971V20.0098H199.961V22.0059ZM223.941 32H219.949V4H225.938V8.00586H227.947V12.0117H229.943V16.0039H231.939V20.0098H233.949V24.002H235.945V4H239.938V32H233.949V28.0078H231.939V24.002H229.943V20.0098H227.947V16.0039H225.938V12.0117H223.941V32ZM261.949 32H249.945V30.0039H247.949V28.0078H245.953V26.0117H243.957V10.002H245.953V8.00586H247.949V6.00977H249.945V4H261.949V6.00977H263.945V8.00586H265.955V10.002H267.951V14.0078H263.945V12.0117H261.949V10.002H259.953V8.00586H251.955V10.002H249.945V12.0117H247.949V24.002H249.945V26.0117H251.955V28.0078H259.953V26.0117H261.949V24.002H263.945V22.0059H267.951V26.0117H265.955V28.0078H263.945V30.0039H261.949V32ZM291.945 32H271.957V4H291.945V8.00586H275.949V15.0059H289.949V19.0117H275.949V28.0078H291.945V32ZM298.959 32H295.965V28.0078H297.961V24.002H299.957V20.0098H301.953V16.0039H303.963V12.0117H305.959V8.00586H307.955V4H309.965V0.0078125H312.959V4H310.963V8.00586H308.953V12.0117H306.957V16.0039H304.961V20.0098H302.965V24.002H300.955V28.0078H298.959V32ZM319.959 32H316.965V28.0078H318.961V24.002H320.957V20.0098H322.953V16.0039H324.963V12.0117H326.959V8.00586H328.955V4H330.965V0.0078125H333.959V4H331.963V8.00586H329.953V12.0117H327.957V16.0039H325.961V20.0098H323.965V24.002H321.955V28.0078H319.959V32ZM340.959 32H337.965V28.0078H339.961V24.002H341.957V20.0098H343.953V16.0039H345.963V12.0117H347.959V8.00586H349.955V4H351.965V0.0078125H354.959V4H352.963V8.00586H350.953V12.0117H348.957V16.0039H346.961V20.0098H344.965V24.002H342.955V28.0078H340.959V32ZM361.959 32H358.965V28.0078H360.961V24.002H362.957V20.0098H364.953V16.0039H366.963V12.0117H368.959V8.00586H370.955V4H372.965V0.0078125H375.959V4H373.963V8.00586H371.953V12.0117H369.957V16.0039H367.961V20.0098H365.965V24.002H363.955V28.0078H361.959V32Z" fill="white"/>
</svg>
