<svg width="354" height="32" viewBox="0 0 354 32" fill="none" xmlns="http://www.w3.org/2000/svg">
<path d="M3.98828 32H-0.00390625V4H3.98828V32ZM11.9727 32H7.98047V4H13.9688V8.00586H15.9785V12.0117H17.9746V16.0039H19.9707V20.0098H21.9805V24.002H23.9766V4H27.9688V32H21.9805V28.0078H19.9707V24.002H17.9746V20.0098H15.9785V16.0039H13.9688V12.0117H11.9727V32ZM50.9648 32H46.9727V20.0098H44.9629V16.0039H42.9668V12.0117H40.9707V8.00586H38.9746V4H42.9668V8.00586H44.9629V12.0117H46.9727V16.0039H50.9648V12.0117H52.9746V8.00586H54.9707V4H58.9629V8.00586H56.9668V12.0117H54.9707V16.0039H52.9746V20.0098H50.9648V32ZM78.9648 32H66.9609V30.0039H64.9648V28.0078H62.9688V26.0117H60.9727V10.002H62.9688V8.00586H64.9648V6.00977H66.9609V4H78.9648V6.00977H80.9609V8.00586H82.9707V10.002H84.9668V26.0117H82.9707V28.0078H80.9609V30.0039H78.9648V32ZM68.9707 28.0078H76.9688V26.0117H78.9648V24.002H80.9609V12.0117H78.9648V10.002H76.9688V8.00586H68.9707V10.002H66.9609V12.0117H64.9648V24.002H66.9609V26.0117H68.9707V28.0078ZM104.969 32H92.9648V30.0039H90.9688V28.0078H88.9727V4H92.9648V26.0117H94.9609V28.0078H102.973V26.0117H104.969V4H108.961V28.0078H106.965V30.0039H104.969V32ZM116.973 32H112.98V4H130.973V6.00977H132.969V8.00586H134.979V17.002H132.969V19.0117H130.973V21.0078H132.969V23.0039H134.979V32H130.973V25H128.977V23.0039H126.98V21.0078H116.973V32ZM116.973 17.002H128.977V15.0059H130.973V10.002H128.977V8.00586H116.973V17.002ZM150.934 32H146.941V4H150.934V15.0059H164.934V4H168.939V32H164.934V19.0117H150.934V32ZM176.91 32H172.918V26.0117H174.914V20.0098H176.91V14.0078H178.906V8.00586H180.916V4H186.918V8.00586H188.914V14.0078H190.91V20.0098H192.906V26.0117H194.916V32H190.91V26.0117H176.91V32ZM178.906 22.0059H188.914V20.0098H186.918V14.0078H184.908V10.002H182.912V14.0078H180.916V20.0098H178.906V22.0059ZM202.887 32H198.895V4H204.883V8.00586H206.893V12.0117H208.889V16.0039H210.885V20.0098H212.895V24.002H214.891V4H218.883V32H212.895V28.0078H210.885V24.002H208.889V20.0098H206.893V16.0039H204.883V12.0117H202.887V32ZM238.898 32H222.902V4H238.898V6.00977H240.895V8.00586H242.891V10.002H244.9V26.0117H242.891V28.0078H240.895V30.0039H238.898V32ZM226.895 28.0078H236.902V26.0117H238.898V24.002H240.895V12.0117H238.898V10.002H236.902V8.00586H226.895V28.0078ZM265.887 32H251.887V30.0039H249.891V28.0078H247.895V24.002H251.887V26.0117H253.883V28.0078H263.891V26.0117H265.887V22.0059H263.891V20.0098H253.883V18H249.891V16.0039H247.895V8.00586H249.891V6.00977H251.887V4H265.887V6.00977H267.883V8.00586H269.893V12.0117H265.887V10.002H263.891V8.00586H253.883V10.002H251.887V14.0078H253.883V16.0039H263.891V18H267.883V20.0098H269.893V28.0078H267.883V30.0039H265.887V32ZM276.865 32H273.871V28.0078H275.867V24.002H277.863V20.0098H279.859V16.0039H281.869V12.0117H283.865V8.00586H285.861V4H287.871V0.0078125H290.865V4H288.869V8.00586H286.859V12.0117H284.863V16.0039H282.867V20.0098H280.871V24.002H278.861V28.0078H276.865V32ZM297.865 32H294.871V28.0078H296.867V24.002H298.863V20.0098H300.859V16.0039H302.869V12.0117H304.865V8.00586H306.861V4H308.871V0.0078125H311.865V4H309.869V8.00586H307.859V12.0117H305.863V16.0039H303.867V20.0098H301.871V24.002H299.861V28.0078H297.865V32ZM318.865 32H315.871V28.0078H317.867V24.002H319.863V20.0098H321.859V16.0039H323.869V12.0117H325.865V8.00586H327.861V4H329.871V0.0078125H332.865V4H330.869V8.00586H328.859V12.0117H326.863V16.0039H324.867V20.0098H322.871V24.002H320.861V28.0078H318.865V32ZM339.865 32H336.871V28.0078H338.867V24.002H340.863V20.0098H342.859V16.0039H344.869V12.0117H346.865V8.00586H348.861V4H350.871V0.0078125H353.865V4H351.869V8.00586H349.859V12.0117H347.863V16.0039H345.867V20.0098H343.871V24.002H341.861V28.0078H339.865V32Z" fill="white"/>
</svg>
