<svg width="302" height="32" viewBox="0 0 302 32" fill="none" xmlns="http://www.w3.org/2000/svg">
<path d="M17.9883 32H-0.00390625V4H3.98828V28.0078H17.9883V32ZM24.9883 32H20.9961V26.0117H22.9922V20.0098H24.9883V14.0078H26.9844V8.00586H28.9941V4H34.9961V8.00586H36.9922V14.0078H38.9883V20.0098H40.9844V26.0117H42.9941V32H38.9883V26.0117H24.9883V32ZM26.9844 22.0059H36.9922V20.0098H34.9961V14.0078H32.9863V10.002H30.9902V14.0078H28.9941V20.0098H26.9844V22.0059ZM62.9688 32H50.9648V30.0039H48.9688V28.0078H46.9727V4H50.9648V26.0117H52.9609V28.0078H60.9727V26.0117H62.9688V4H66.9609V28.0078H64.9648V30.0039H62.9688V32ZM74.9727 32H70.9805V4H76.9688V8.00586H78.9785V12.0117H80.9746V16.0039H82.9707V20.0098H84.9805V24.002H86.9766V4H90.9688V32H84.9805V28.0078H82.9707V24.002H80.9746V20.0098H78.9785V16.0039H76.9688V12.0117H74.9727V32ZM112.98 32H100.977V30.0039H98.9805V28.0078H96.9844V26.0117H94.9883V10.002H96.9844V8.00586H98.9805V6.00977H100.977V4H112.98V6.00977H114.977V8.00586H116.986V10.002H118.982V14.0078H114.977V12.0117H112.98V10.002H110.984V8.00586H102.986V10.002H100.977V12.0117H98.9805V24.002H100.977V26.0117H102.986V28.0078H110.984V26.0117H112.98V24.002H114.977V22.0059H118.982V26.0117H116.986V28.0078H114.977V30.0039H112.98V32ZM126.98 32H122.988V4H126.98V15.0059H140.98V4H144.986V32H140.98V19.0117H126.98V32ZM152.957 32H148.965V4H164.961V6.00977H166.957V8.00586H168.953V18H166.957V20.0098H164.961V22.0059H152.957V32ZM152.957 18H162.965V16.0039H164.961V10.002H162.965V8.00586H152.957V18ZM173.957 32H169.965V26.0117H171.961V20.0098H173.957V14.0078H175.953V8.00586H177.963V4H183.965V8.00586H185.961V14.0078H187.957V20.0098H189.953V26.0117H191.963V32H187.957V26.0117H173.957V32ZM175.953 22.0059H185.961V20.0098H183.965V14.0078H181.955V10.002H179.959V14.0078H177.963V20.0098H175.953V22.0059ZM211.938 32H195.941V4H211.938V6.00977H213.934V8.00586H215.93V10.002H217.939V26.0117H215.93V28.0078H213.934V30.0039H211.938V32ZM199.934 28.0078H209.941V26.0117H211.938V24.002H213.934V12.0117H211.938V10.002H209.941V8.00586H199.934V28.0078ZM224.912 32H221.918V28.0078H223.914V24.002H225.91V20.0098H227.906V16.0039H229.916V12.0117H231.912V8.00586H233.908V4H235.918V0.0078125H238.912V4H236.916V8.00586H234.906V12.0117H232.91V16.0039H230.914V20.0098H228.918V24.002H226.908V28.0078H224.912V32ZM245.912 32H242.918V28.0078H244.914V24.002H246.91V20.0098H248.906V16.0039H250.916V12.0117H252.912V8.00586H254.908V4H256.918V0.0078125H259.912V4H257.916V8.00586H255.906V12.0117H253.91V16.0039H251.914V20.0098H249.918V24.002H247.908V28.0078H245.912V32ZM266.912 32H263.918V28.0078H265.914V24.002H267.91V20.0098H269.906V16.0039H271.916V12.0117H273.912V8.00586H275.908V4H277.918V0.0078125H280.912V4H278.916V8.00586H276.906V12.0117H274.91V16.0039H272.914V20.0098H270.918V24.002H268.908V28.0078H266.912V32ZM287.912 32H284.918V28.0078H286.914V24.002H288.91V20.0098H290.906V16.0039H292.916V12.0117H294.912V8.00586H296.908V4H298.918V0.0078125H301.912V4H299.916V8.00586H297.906V12.0117H295.91V16.0039H293.914V20.0098H291.918V24.002H289.908V28.0078H287.912V32Z" fill="white"/>
</svg>
