<svg width="1047" height="224" viewBox="0 0 1047 224" fill="none" xmlns="http://www.w3.org/2000/svg">
<path d="M88.7078 224H40.7993V208.067H24.8662V88.3503H0.966553V64.4507H24.8662V16.5422H56.8416V64.4507H88.7078V88.3503H56.8416V192.134H88.7078V224ZM144.692 40.4419H112.826V8.57568H144.692V40.4419ZM144.692 224H112.826V64.4507H144.692V224ZM208.424 224H176.558V64.4507H208.424V80.3838H224.357V64.4507H272.266V80.3838H304.241V64.4507H368.083V80.3838H384.016V96.3169H400.058V224H368.083V112.25H352.15V96.3169H320.174V112.25H304.241V224H272.266V112.25H256.333V96.3169H224.357V112.25H208.424V224ZM543.674 224H463.791V208.067H447.857V192.134H431.924V96.3169H447.857V80.3838H463.791V64.4507H543.674V80.3838H559.607V96.3169H575.541V152.192H463.791V176.201H479.724V192.134H527.632V176.201H575.541V192.134H559.607V208.067H543.674V224ZM463.791 128.292H543.674V112.25H527.632V96.3169H479.724V112.25H463.791V128.292ZM639.273 224H607.407V0.5H639.273V224ZM703.005 40.4419H671.139V8.57568H703.005V40.4419ZM703.005 224H671.139V64.4507H703.005V224ZM766.738 224H734.872V64.4507H766.738V80.3838H782.671V64.4507H838.546V80.3838H854.588V96.3169H870.521V224H838.546V112.25H822.613V96.3169H782.671V112.25H766.738V224ZM1014.25 224H934.363V208.067H918.43V192.134H902.497V96.3169H918.43V80.3838H934.363V64.4507H1014.25V80.3838H1030.18V96.3169H1046.11V152.192H934.363V176.201H950.296V192.134H998.204V176.201H1046.11V192.134H1030.18V208.067H1014.25V224ZM934.363 128.292H1014.25V112.25H998.204V96.3169H950.296V112.25H934.363V128.292Z" fill="white"/>
</svg>
