<svg width="1078" height="332" viewBox="0 0 1078 332" fill="none" xmlns="http://www.w3.org/2000/svg">
<path d="M95.7078 260H47.7993V244.067H31.8662V124.35H7.96655V100.451H31.8662V52.5422H63.8416V100.451H95.7078V124.35H63.8416V228.134H95.7078V260ZM151.692 76.4419H119.826V44.5757H151.692V76.4419ZM151.692 260H119.826V100.451H151.692V260ZM215.424 260H183.558V100.451H215.424V116.384H231.357V100.451H279.266V116.384H311.241V100.451H375.083V116.384H391.016V132.317H407.058V260H375.083V148.25H359.15V132.317H327.174V148.25H311.241V260H279.266V148.25H263.333V132.317H231.357V148.25H215.424V260ZM550.674 260H470.791V244.067H454.857V228.134H438.924V132.317H454.857V116.384H470.791V100.451H550.674V116.384H566.607V132.317H582.541V188.192H470.791V212.201H486.724V228.134H534.632V212.201H582.541V228.134H566.607V244.067H550.674V260ZM470.791 164.292H550.674V148.25H534.632V132.317H486.724V148.25H470.791V164.292ZM646.273 260H614.407V36.5H646.273V260ZM710.005 76.4419H678.139V44.5757H710.005V76.4419ZM710.005 260H678.139V100.451H710.005V260ZM773.738 260H741.872V100.451H773.738V116.384H789.671V100.451H845.546V116.384H861.588V132.317H877.521V260H845.546V148.25H829.613V132.317H789.671V148.25H773.738V260ZM1021.25 260H941.363V244.067H925.43V228.134H909.497V132.317H925.43V116.384H941.363V100.451H1021.25V116.384H1037.18V132.317H1053.11V188.192H941.363V212.201H957.296V228.134H1005.2V212.201H1053.11V228.134H1037.18V244.067H1021.25V260ZM941.363 164.292H1021.25V148.25H1005.2V132.317H957.296V148.25H941.363V164.292Z" fill="#06FFC3"/>
<path d="M103.708 247H55.7993V231.067H39.8662V111.35H15.9666V87.4507H39.8662V39.5422H71.8416V87.4507H103.708V111.35H71.8416V215.134H103.708V247ZM159.692 63.4419H127.826V31.5757H159.692V63.4419ZM159.692 247H127.826V87.4507H159.692V247ZM223.424 247H191.558V87.4507H223.424V103.384H239.357V87.4507H287.266V103.384H319.241V87.4507H383.083V103.384H399.016V119.317H415.058V247H383.083V135.25H367.15V119.317H335.174V135.25H319.241V247H287.266V135.25H271.333V119.317H239.357V135.25H223.424V247ZM558.674 247H478.791V231.067H462.857V215.134H446.924V119.317H462.857V103.384H478.791V87.4507H558.674V103.384H574.607V119.317H590.541V175.192H478.791V199.201H494.724V215.134H542.632V199.201H590.541V215.134H574.607V231.067H558.674V247ZM478.791 151.292H558.674V135.25H542.632V119.317H494.724V135.25H478.791V151.292ZM654.273 247H622.407V23.5H654.273V247ZM718.005 63.4419H686.139V31.5757H718.005V63.4419ZM718.005 247H686.139V87.4507H718.005V247ZM781.738 247H749.872V87.4507H781.738V103.384H797.671V87.4507H853.546V103.384H869.588V119.317H885.521V247H853.546V135.25H837.613V119.317H797.671V135.25H781.738V247ZM1029.25 247H949.363V231.067H933.43V215.134H917.497V119.317H933.43V103.384H949.363V87.4507H1029.25V103.384H1045.18V119.317H1061.11V175.192H949.363V199.201H965.296V215.134H1013.2V199.201H1061.11V215.134H1045.18V231.067H1029.25V247ZM949.363 151.292H1029.25V135.25H1013.2V119.317H965.296V135.25H949.363V151.292Z" fill="white"/>
</svg>
