<svg width="26" height="25" viewBox="0 0 26 25" fill="none" xmlns="http://www.w3.org/2000/svg">
<path d="M5.23779 25H0.247559V21.2573H2.74268V18.7622H5.23779V16.25H7.73291V13.7549H10.2451V11.2598H7.73291V8.76465H5.23779V6.25244H2.74268V3.75732H0.247559V0.0146484H5.23779V2.50977H7.73291V5.00488H10.2451V7.5H15.2354V5.00488H17.7476V2.50977H20.2427V0.0146484H25.2329V3.75732H22.7378V6.25244H20.2427V8.76465H17.7476V11.2598H15.2354V13.7549H17.7476V16.25H20.2427V18.7622H22.7378V21.2573H25.2329V25H20.2427V22.5049H17.7476V20.0098H15.2354V17.5146H10.2451V20.0098H7.73291V22.5049H5.23779V25Z" fill="#06FFC3"/>
</svg>
